<svg width="280" height="35" viewBox="0 0 280 35" fill="none" xmlns="http://www.w3.org/2000/svg">
<path d="M4.67188 18.1641L18.1211 23.5996V27.8105L0.546875 19.668V16.5312L18.1211 8.41016V12.6211L4.67188 18.1641ZM49.6387 32H43.1934V18.5938H30.625V32H24.1797V0.71875H30.625V13.3945H43.1934V0.71875H49.6387V32ZM66.8477 24.2441L73.9375 0.71875H81.1133L70.2207 32H63.4961L52.6465 0.71875H59.8008L66.8477 24.2441ZM102.898 18.4434H90.5234V26.8223H105.047V32H84.0781V0.71875H105.004V5.93945H90.5234V13.3945H102.898V18.4434ZM120.021 11.5039L125.887 0.71875H133.299L124.189 16.2305L133.535 32H126.037L120.021 21.043L114.006 32H106.508L115.854 16.2305L106.744 0.71875H114.156L120.021 11.5039ZM141.785 28.627H156.609V32H137.639V0.71875H141.785V28.627ZM179.018 23.8359H165.912L162.969 32H158.715L170.66 0.71875H174.27L186.236 32H182.004L179.018 23.8359ZM167.158 20.4414H177.793L172.465 5.81055L167.158 20.4414ZM190.447 32V0.71875H200.674C204.068 0.71875 206.618 1.42057 208.322 2.82422C210.041 4.22786 210.9 6.30469 210.9 9.05469C210.9 10.5156 210.485 11.8118 209.654 12.9434C208.824 14.0605 207.692 14.9271 206.26 15.543C207.95 16.0156 209.282 16.918 210.256 18.25C211.244 19.5677 211.738 21.1432 211.738 22.9766C211.738 25.7839 210.829 27.9896 209.01 29.5938C207.191 31.1979 204.62 32 201.297 32H190.447ZM194.572 17.3691V28.627H201.383C203.302 28.627 204.813 28.1328 205.916 27.1445C207.033 26.1419 207.592 24.7669 207.592 23.0195C207.592 19.2526 205.544 17.3691 201.447 17.3691H194.572ZM194.572 14.0605H200.803C202.607 14.0605 204.047 13.6094 205.121 12.707C206.21 11.8047 206.754 10.5801 206.754 9.0332C206.754 7.31445 206.253 6.06836 205.25 5.29492C204.247 4.50716 202.722 4.11328 200.674 4.11328H194.572V14.0605ZM227.078 18.0566C223.54 17.0397 220.962 15.7936 219.344 14.3184C217.74 12.8288 216.938 10.9954 216.938 8.81836C216.938 6.35482 217.919 4.32096 219.881 2.7168C221.857 1.09831 224.421 0.289062 227.572 0.289062C229.721 0.289062 231.633 0.704427 233.309 1.53516C234.999 2.36589 236.302 3.51172 237.219 4.97266C238.15 6.43359 238.615 8.0306 238.615 9.76367H234.469C234.469 7.87305 233.867 6.39062 232.664 5.31641C231.461 4.22786 229.764 3.68359 227.572 3.68359C225.538 3.68359 223.949 4.13477 222.803 5.03711C221.671 5.92513 221.105 7.16406 221.105 8.75391C221.105 10.0286 221.643 11.11 222.717 11.998C223.805 12.8717 225.646 13.6738 228.238 14.4043C230.845 15.1348 232.879 15.944 234.34 16.832C235.815 17.7057 236.904 18.7298 237.605 19.9043C238.322 21.0788 238.68 22.4609 238.68 24.0508C238.68 26.5859 237.691 28.6198 235.715 30.1523C233.738 31.6706 231.096 32.4297 227.787 32.4297C225.639 32.4297 223.633 32.0215 221.771 31.2051C219.91 30.3743 218.47 29.2428 217.453 27.8105C216.451 26.3783 215.949 24.7526 215.949 22.9336H220.096C220.096 24.8242 220.79 26.321 222.18 27.4238C223.583 28.5124 225.452 29.0566 227.787 29.0566C229.964 29.0566 231.633 28.6126 232.793 27.7246C233.953 26.8366 234.533 25.6263 234.533 24.0938C234.533 22.5612 233.996 21.3796 232.922 20.5488C231.848 19.7038 229.9 18.873 227.078 18.0566ZM244.158 34.6855H240.742L253.805 0.71875H257.199L244.158 34.6855ZM275.568 18.0352L261.367 12.4707V8.38867L279.715 16.5098V19.6465L261.367 27.7891V23.6641L275.568 18.0352Z" fill="#10486D"/>
</svg>
